<svg width="22" height="14" viewBox="0 0 22 14" fill="none" xmlns="http://www.w3.org/2000/svg">
<path d="M21.4301 10.6558C21.4301 7.45761 21.4301 4.25946 21.4301 1.06131C21.4301 0.389474 21.0915 0.0507812 20.4196 0.0507812C14.573 0.0563336 8.72639 0.0563336 2.87977 0.0563336C2.20239 0.0563336 1.86925 0.395027 1.86925 1.06686C1.86925 4.26501 1.86925 7.46316 1.86925 10.6613C1.86925 10.8334 1.84704 11.0056 1.86925 11.1777C1.8859 11.3165 1.93587 11.4442 2.02471 11.5552C2.08023 11.6274 2.13021 11.7107 2.20239 11.7718C2.25791 11.8162 2.32454 11.8384 2.39672 11.8551C2.48 11.8717 2.56884 11.8884 2.65213 11.8884C2.69654 11.8884 2.74652 11.8884 2.79093 11.8884C2.84091 11.8884 2.89088 11.8884 2.94085 11.8884C3.13518 11.8884 3.33506 11.8884 3.5294 11.8884C3.72373 11.8884 3.92361 11.8884 4.11794 11.8884C4.31228 11.8884 4.51216 11.8884 4.70649 11.8884C4.90082 11.8884 5.10071 11.8884 5.29504 11.8884C5.48937 11.8884 5.68926 11.8884 5.88359 11.8884C6.07792 11.8884 6.27781 11.8884 6.47214 11.8884C6.66647 11.8884 6.86635 11.8884 7.06069 11.8884C7.25502 11.8884 7.4549 11.8884 7.64923 11.8884C7.84357 11.8884 8.04345 11.8884 8.23778 11.8884C8.43211 11.8884 8.632 11.8884 8.82633 11.8884C9.02066 11.8884 9.22055 11.8884 9.41488 11.8884C9.60921 11.8884 9.8091 11.8884 10.0034 11.8884C10.1978 11.8884 10.3976 11.8884 10.592 11.8884C10.7863 11.8884 10.9862 11.8884 11.1805 11.8884C11.3749 11.8884 11.5747 11.8884 11.7691 11.8884C11.9634 11.8884 12.1633 11.8884 12.3576 11.8884C12.552 11.8884 12.7518 11.8884 12.9462 11.8884C13.1405 11.8884 13.3404 11.8884 13.5347 11.8884C13.729 11.8884 13.9289 11.8884 14.1233 11.8884C14.3176 11.8884 14.5175 11.8884 14.7118 11.8884C14.9061 11.8884 15.106 11.8884 15.3004 11.8884C15.4947 11.8884 15.6946 11.8884 15.8889 11.8884C16.0832 11.8884 16.2831 11.8884 16.4775 11.8884C16.6718 11.8884 16.8717 11.8884 17.066 11.8884C17.2603 11.8884 17.4602 11.8884 17.6546 11.8884C17.8489 11.8884 18.0488 11.8884 18.2431 11.8884C18.4374 11.8884 18.6373 11.8884 18.8317 11.8884C19.026 11.8884 19.2259 11.8884 19.4202 11.8884C19.6145 11.8884 19.8144 11.8884 20.0087 11.8884C20.1587 11.8884 20.303 11.8884 20.4529 11.8884C20.5362 11.8884 20.614 11.8884 20.6972 11.8884C20.7083 11.8884 20.7194 11.8884 20.7306 11.8884C20.7417 11.8884 20.7472 11.8828 20.7583 11.8773C20.8194 11.8495 20.8805 11.8217 20.936 11.7829C20.9915 11.7496 21.047 11.7107 21.097 11.6663C21.1026 11.6607 21.1081 11.6552 21.1081 11.6552C21.1359 11.6274 21.1525 11.5997 21.1803 11.5719C21.2025 11.5441 21.2247 11.5164 21.2469 11.4831C21.2802 11.4331 21.3024 11.3776 21.3247 11.3165C21.3635 11.2054 21.3746 11.0888 21.3802 10.9778C21.4357 10.8667 21.4301 10.7612 21.4301 10.6558Z" fill="#3F3679"/>
<path d="M19.7647 11.6204C19.7036 11.6204 19.6425 11.6259 19.5759 11.6259C14.3011 11.6259 9.03197 11.6259 3.75725 11.6259C3.67952 11.6259 3.60734 11.6204 3.5296 11.6204C3.31861 11.5371 3.22978 11.365 3.19091 11.154C3.1687 11.0429 3.1687 10.9319 3.1687 10.8208C3.1687 7.57826 3.1687 4.33014 3.1687 1.08757C3.1687 0.87658 3.19091 0.671143 3.30751 0.487916C3.37969 0.376869 3.47408 0.304689 3.61289 0.315793C3.66841 0.321346 3.72394 0.315793 3.77946 0.315793C9.00977 0.315793 14.2345 0.315793 19.4648 0.315793C19.5481 0.315793 19.6314 0.326898 19.7147 0.304689C20.0367 0.310241 20.3643 0.26027 20.6863 0.33245C20.542 0.44905 20.3699 0.393526 20.2033 0.399079C19.959 0.410183 19.959 0.404631 20.0478 0.61562C20.1033 0.737772 20.1144 0.871028 20.12 0.998732C20.12 4.30238 20.12 7.60602 20.12 10.9152C20.12 11.2095 20.0589 11.476 19.7647 11.6204Z" fill="#63BBE6"/>
<path d="M19.72 0.307155C19.6423 0.362679 19.559 0.334917 19.4757 0.334917C14.251 0.334917 9.02622 0.334917 3.80702 0.334917C3.46832 0.334917 3.26844 0.523697 3.24068 0.867942C3.23512 0.929018 3.24068 0.990093 3.24068 1.05672C3.24068 4.30484 3.24068 7.54741 3.23512 10.7955C3.23512 11.1176 3.27954 11.4007 3.5294 11.6228C3.25733 11.6228 2.99082 11.6284 2.71876 11.6284C2.38006 11.6228 2.13576 11.3785 2.11355 11.0398C2.108 10.9843 2.11355 10.9288 2.11355 10.8733C2.11355 7.60849 2.11355 4.34371 2.11355 1.07893C2.11355 0.540354 2.34675 0.307155 2.89088 0.307155C8.41546 0.307155 13.94 0.307155 19.4702 0.307155C19.5535 0.301603 19.6367 0.307155 19.72 0.307155Z" fill="#6377E6"/>
<path d="M19.7646 11.6222C20.0034 11.389 20.0589 11.1003 20.0589 10.7727C20.0534 7.63007 20.0534 4.493 20.0534 1.35037C20.0534 1.00612 20.0978 0.650775 19.7813 0.339844C20.12 0.339844 20.4032 0.339844 20.6808 0.339844C20.9695 0.406472 21.1527 0.617461 21.1694 0.906183C21.1749 0.961706 21.1694 1.01723 21.1694 1.07275C21.1694 4.33753 21.1694 7.60786 21.1694 10.8726C21.1694 11.4223 20.9584 11.6333 20.3976 11.6333C20.1977 11.6278 19.9812 11.6222 19.7646 11.6222Z" fill="#63E1E6"/>
<path d="M5.52843 5.20438C4.89547 4.48812 4.8677 3.74966 5.43404 3.19443C5.93931 2.70027 6.72774 2.69472 7.25521 3.18332C7.68274 3.57199 7.94925 4.46036 7.16637 5.19327C7.32739 5.24324 7.48841 5.271 7.63277 5.34318C8.20466 5.6097 8.46007 6.07609 8.47117 6.6924C8.48228 7.41976 8.47117 8.14712 8.47673 8.87447C8.47673 9.06325 8.40455 9.12433 8.21577 9.12433C6.96649 9.11878 5.72277 9.11878 4.47349 9.12433C4.27916 9.12433 4.22363 9.0577 4.22363 8.86892C4.22919 8.14156 4.22363 7.41421 4.22919 6.68685C4.22919 5.89842 4.64006 5.40426 5.41183 5.23769C5.44515 5.23214 5.47846 5.22103 5.52843 5.20438Z" fill="#3F3679"/>
<path d="M17.9712 5.63559H11.6026C11.536 5.63559 11.4805 5.58007 11.4805 5.51344V5.31356C11.4805 5.24693 11.536 5.19141 11.6026 5.19141H17.9712C18.0378 5.19141 18.0933 5.24693 18.0933 5.31356V5.51344C18.0933 5.58007 18.0378 5.63559 17.9712 5.63559Z" fill="#F26175"/>
<path d="M17.9712 7.04966H11.6026C11.536 7.04966 11.4805 6.99413 11.4805 6.9275V6.72762C11.4805 6.66099 11.536 6.60547 11.6026 6.60547H17.9712C18.0378 6.60547 18.0933 6.66099 18.0933 6.72762V6.9275C18.0933 6.99413 18.0378 7.04966 17.9712 7.04966Z" fill="#F26175"/>
<path d="M17.5659 6.34036H12.008C11.9413 6.34036 11.8914 6.29039 11.8914 6.22377V6.00722C11.8914 5.9406 11.9413 5.89062 12.008 5.89062H17.5714C17.638 5.89062 17.688 5.9406 17.688 6.00722V6.22377C17.6825 6.29039 17.6325 6.34036 17.5659 6.34036Z" fill="#F26175"/>
<path d="M17.8823 4.73223H11.6915C11.5749 4.73223 11.4805 4.63784 11.4805 4.52124V3.63286C11.4805 3.51627 11.5749 3.42188 11.6915 3.42188H17.8823C17.9989 3.42188 18.0933 3.51627 18.0933 3.63286V4.52124C18.0933 4.63784 17.9989 4.73223 17.8823 4.73223Z" fill="#F7AE23"/>
<path d="M14.773 7.79297C13.7958 7.79297 12.8186 7.79297 11.8414 7.79297C11.6748 7.79297 11.6581 7.80407 11.7137 7.91512C11.9524 8.38707 12.4244 8.55364 13.1739 8.53143C14.3455 8.49812 15.517 8.52033 16.6886 8.52588C17.1716 8.53143 17.5159 8.41483 17.6991 8.10945C17.7379 8.04282 17.7879 7.9762 17.8434 7.91512C17.9323 7.81518 17.8768 7.79297 17.7213 7.79297C16.7385 7.79297 15.7558 7.79297 14.773 7.79297Z" fill="#F7AE23"/>
<path d="M6.33911 8.87423C5.77832 8.87423 5.21754 8.86867 4.6512 8.87423C4.52349 8.87423 4.46797 8.84646 4.47352 8.7021C4.47907 8.00251 4.46797 7.30291 4.47907 6.59777C4.49018 5.95369 4.97323 5.47064 5.6173 5.45954C6.0837 5.44843 6.54455 5.45398 7.01094 5.45954C7.71054 5.46509 8.19914 5.92038 8.2158 6.61998C8.23801 7.31957 8.2158 8.01917 8.22135 8.71876C8.22135 8.86867 8.14362 8.86867 8.03813 8.86312C7.47734 8.87423 6.911 8.87423 6.33911 8.87423Z" fill="#CDCDCD"/>
<path d="M6.35572 3.07422C6.95537 3.07977 7.41622 3.54617 7.41622 4.15137C7.41066 4.75103 6.93871 5.21187 6.33906 5.21187C5.74496 5.21187 5.27856 4.73437 5.27856 4.13472C5.27856 3.54062 5.75607 3.07422 6.35572 3.07422Z" fill="#F7AE23"/>
<path d="M3.30924 6.37109C3.38325 6.37109 3.45726 6.37109 3.53128 6.37109C3.56582 6.37603 3.60036 6.38096 3.63489 6.3859C3.75496 6.4007 3.87667 6.40728 3.99509 6.42866C4.62174 6.54708 5.16614 6.82669 5.62174 7.27241C6.12832 7.76912 6.43588 8.3678 6.54114 9.07175C6.55595 9.16715 6.56582 9.26254 6.57897 9.35794C6.57897 9.47307 6.57897 9.5882 6.57897 9.70333C6.56582 9.81517 6.55595 9.92701 6.53621 10.0372C6.41614 10.7477 6.09378 11.3514 5.56746 11.8415C5.09049 12.2856 4.52634 12.5569 3.87996 12.6507C3.78457 12.6639 3.68917 12.6754 3.59378 12.6869C3.47864 12.6869 3.36351 12.6869 3.24838 12.6869C3.22864 12.6836 3.20891 12.677 3.18917 12.6754C3.04937 12.6556 2.90628 12.6458 2.76976 12.6145C1.95233 12.4369 1.3043 12.001 0.824039 11.3168C0.521407 10.8843 0.343776 10.404 0.289499 9.87767C0.281276 9.80201 0.273052 9.728 0.263184 9.65234C0.263184 9.57011 0.263184 9.48787 0.263184 9.40563C0.268118 9.37767 0.273052 9.34971 0.276341 9.32175C0.294434 9.1803 0.302657 9.03557 0.332263 8.89576C0.495092 8.12438 0.893118 7.49609 1.51976 7.01748C1.97864 6.66715 2.49674 6.46155 3.07075 6.39905C3.1497 6.38919 3.22864 6.37932 3.30924 6.37109ZM2.82568 10.052C2.80101 10.0208 2.7895 9.99938 2.77305 9.98458C2.57239 9.78392 2.37174 9.58327 2.17108 9.38261C2.07075 9.28228 1.94739 9.24445 1.80924 9.27405C1.66121 9.3053 1.56088 9.39905 1.51812 9.54544C1.47535 9.69017 1.50989 9.8234 1.6168 9.9303C1.91614 10.2313 2.21549 10.529 2.51483 10.8283C2.7122 11.0257 2.93424 11.0257 3.12996 10.83C3.81253 10.1474 4.49674 9.4632 5.1793 8.78063C5.20397 8.75596 5.22864 8.73129 5.25003 8.70333C5.40463 8.49938 5.32404 8.20004 5.08555 8.10794C4.92108 8.04544 4.77634 8.08326 4.65134 8.20826C4.06088 8.79873 3.47207 9.38919 2.8816 9.97965C2.86845 9.99774 2.85364 10.0175 2.82568 10.052Z" fill="#70CC33"/>
<path d="M2.82579 10.0518C2.85375 10.0173 2.8669 9.99589 2.885 9.97945C3.47546 9.38899 4.06592 8.79853 4.65473 8.20807C4.77973 8.08307 4.92447 8.04524 5.08894 8.10774C5.32743 8.19984 5.40802 8.49918 5.25342 8.70313C5.23204 8.73109 5.20737 8.75576 5.18269 8.78043C4.50013 9.463 3.81592 10.1472 3.13335 10.8298C2.93763 11.0255 2.71559 11.0255 2.51822 10.8281C2.21888 10.5288 1.91789 10.2294 1.62019 9.9301C1.51329 9.82155 1.47875 9.68997 1.52151 9.54524C1.56427 9.4005 1.6646 9.30675 1.81263 9.27385C1.95079 9.24425 2.0725 9.28208 2.17447 9.38241C2.37513 9.58307 2.57579 9.78372 2.77644 9.98438C2.79125 10.0008 2.80276 10.0206 2.82579 10.0518Z" fill="white"/>
</svg>
