<svg width="23" height="14" viewBox="0 0 23 14" fill="none" xmlns="http://www.w3.org/2000/svg">
<path d="M21.6902 11.3354C21.6902 8.13729 21.6902 4.93914 21.6902 1.741C21.6902 1.06916 21.3515 0.730469 20.6796 0.730469C14.833 0.736021 8.9864 0.736021 3.13978 0.736021C2.4624 0.736021 2.12926 1.07471 2.12926 1.74655C2.12926 4.9447 2.12926 8.14285 2.12926 11.341C2.12926 11.5131 2.10705 11.6852 2.12926 11.8574C2.14591 11.9962 2.19588 12.1239 2.28472 12.2349C2.34024 12.3071 2.39022 12.3904 2.4624 12.4515C2.51792 12.4959 2.58455 12.5181 2.65673 12.5347C2.74001 12.5514 2.82885 12.5681 2.91214 12.5681C2.95655 12.5681 3.00653 12.5681 3.05094 12.5681C3.10092 12.5681 3.15089 12.5681 3.20086 12.5681C3.39519 12.5681 3.59507 12.5681 3.78941 12.5681C3.98374 12.5681 4.18362 12.5681 4.37795 12.5681C4.57229 12.5681 4.77217 12.5681 4.9665 12.5681C5.16083 12.5681 5.36072 12.5681 5.55505 12.5681C5.74938 12.5681 5.94927 12.5681 6.1436 12.5681C6.33793 12.5681 6.53782 12.5681 6.73215 12.5681C6.92648 12.5681 7.12636 12.5681 7.3207 12.5681C7.51503 12.5681 7.71491 12.5681 7.90924 12.5681C8.10358 12.5681 8.30346 12.5681 8.49779 12.5681C8.69212 12.5681 8.89201 12.5681 9.08634 12.5681C9.28067 12.5681 9.48056 12.5681 9.67489 12.5681C9.86922 12.5681 10.0691 12.5681 10.2634 12.5681C10.4578 12.5681 10.6577 12.5681 10.852 12.5681C11.0463 12.5681 11.2462 12.5681 11.4405 12.5681C11.6349 12.5681 11.8348 12.5681 12.0291 12.5681C12.2234 12.5681 12.4233 12.5681 12.6176 12.5681C12.812 12.5681 13.0118 12.5681 13.2062 12.5681C13.4005 12.5681 13.6004 12.5681 13.7947 12.5681C13.9891 12.5681 14.1889 12.5681 14.3833 12.5681C14.5776 12.5681 14.7775 12.5681 14.9718 12.5681C15.1662 12.5681 15.366 12.5681 15.5604 12.5681C15.7547 12.5681 15.9546 12.5681 16.1489 12.5681C16.3433 12.5681 16.5431 12.5681 16.7375 12.5681C16.9318 12.5681 17.1317 12.5681 17.326 12.5681C17.5203 12.5681 17.7202 12.5681 17.9146 12.5681C18.1089 12.5681 18.3088 12.5681 18.5031 12.5681C18.6974 12.5681 18.8973 12.5681 19.0917 12.5681C19.286 12.5681 19.4859 12.5681 19.6802 12.5681C19.8745 12.5681 20.0744 12.5681 20.2688 12.5681C20.4187 12.5681 20.563 12.5681 20.7129 12.5681C20.7962 12.5681 20.874 12.5681 20.9572 12.5681C20.9684 12.5681 20.9795 12.5681 20.9906 12.5681C21.0017 12.5681 21.0072 12.5625 21.0183 12.557C21.0794 12.5292 21.1405 12.5014 21.196 12.4626C21.2515 12.4293 21.307 12.3904 21.357 12.346C21.3626 12.3404 21.3681 12.3349 21.3681 12.3349C21.3959 12.3071 21.4125 12.2793 21.4403 12.2516C21.4625 12.2238 21.4847 12.1961 21.5069 12.1627C21.5402 12.1128 21.5625 12.0572 21.5847 11.9962C21.6235 11.8851 21.6346 11.7685 21.6402 11.6575C21.6957 11.5464 21.6902 11.4409 21.6902 11.3354Z" fill="#3F3679"/>
<path d="M20.0247 12.3001C19.9636 12.3001 19.9025 12.3056 19.8359 12.3056C14.5612 12.3056 9.29198 12.3056 4.01726 12.3056C3.93953 12.3056 3.86735 12.3001 3.78961 12.3001C3.57862 12.2168 3.48979 12.0446 3.45092 11.8337C3.42871 11.7226 3.42871 11.6116 3.42871 11.5005C3.42871 8.25794 3.42871 5.00982 3.42871 1.76726C3.42871 1.55627 3.45092 1.35083 3.56752 1.1676C3.6397 1.05656 3.73409 0.984376 3.8729 0.995481C3.92842 1.00103 3.98395 0.995481 4.03947 0.995481C9.26978 0.995481 14.4945 0.995481 19.7248 0.995481C19.8081 0.995481 19.8914 1.00659 19.9747 0.984376C20.2967 0.989929 20.6243 0.939958 20.9464 1.01214C20.802 1.12874 20.6299 1.07321 20.4633 1.07877C20.219 1.08987 20.219 1.08432 20.3078 1.29531C20.3634 1.41746 20.3745 1.55072 20.38 1.67842C20.38 4.98206 20.38 8.28571 20.38 11.5949C20.38 11.8892 20.3189 12.1557 20.0247 12.3001Z" fill="#63BBE6"/>
<path d="M19.98 0.986843C19.9023 1.04237 19.819 1.0146 19.7357 1.0146C14.511 1.0146 9.28623 1.0146 4.06703 1.0146C3.72833 1.0146 3.52845 1.20338 3.50069 1.54763C3.49513 1.60871 3.50069 1.66978 3.50069 1.73641C3.50069 4.98453 3.50069 8.2271 3.49513 11.4752C3.49513 11.7973 3.53955 12.0804 3.78941 12.3025C3.51734 12.3025 3.25083 12.3081 2.97877 12.3081C2.64007 12.3025 2.39577 12.0582 2.37356 11.7195C2.36801 11.664 2.37356 11.6085 2.37356 11.553C2.37356 8.28817 2.37356 5.0234 2.37356 1.75862C2.37356 1.22004 2.60676 0.986843 3.15089 0.986843C8.67547 0.986843 14.2001 0.986843 19.7302 0.986843C19.8135 0.98129 19.8968 0.986843 19.98 0.986843Z" fill="#6377E6"/>
<path d="M20.0247 12.3019C20.2634 12.0687 20.3189 11.78 20.3189 11.4524C20.3134 8.30976 20.3134 5.17268 20.3134 2.03006C20.3134 1.68581 20.3578 1.33046 20.0413 1.01953C20.38 1.01953 20.6632 1.01953 20.9408 1.01953C21.2295 1.08616 21.4127 1.29715 21.4294 1.58587C21.435 1.64139 21.4294 1.69692 21.4294 1.75244C21.4294 5.01722 21.4294 8.28755 21.4294 11.5523C21.4294 12.102 21.2184 12.313 20.6576 12.313C20.4577 12.3074 20.2412 12.3019 20.0247 12.3019Z" fill="#63E1E6"/>
<path d="M18.7921 5.78108C18.992 5.9421 19.1752 6.10312 19.3695 6.24193C19.6916 6.47513 19.8415 6.80272 19.847 7.18583C19.8581 7.87432 19.8637 8.55726 19.847 9.24575C19.8304 9.8565 19.3473 10.2341 18.8087 10.0897C18.4534 9.99531 18.198 9.66772 18.2035 9.26795C18.2035 9.09583 18.1591 9.04586 17.987 9.05141C16.027 9.05697 14.0615 9.05697 12.1015 9.05141C11.9349 9.05141 11.8739 9.09028 11.8794 9.26795C11.885 9.76767 11.5241 10.1341 11.0632 10.1286C10.5968 10.123 10.2526 9.75101 10.2526 9.2513C10.2526 8.57391 10.2581 7.89097 10.2526 7.21359C10.247 6.79716 10.4136 6.48068 10.7412 6.23082C10.9244 6.09202 11.1076 5.9421 11.2964 5.79219C11.2187 5.74222 11.1576 5.76443 11.0965 5.75887C10.9466 5.74222 10.8356 5.67559 10.7912 5.52012C10.7912 5.51457 10.7856 5.50902 10.7856 5.50347C10.6079 5.00931 10.6746 4.80387 11.2464 4.84829C11.302 4.85384 11.3575 4.84829 11.413 4.84829C11.7184 4.86495 11.9794 4.8705 12.1737 4.52625C12.3403 4.23198 12.6956 4.1487 13.0343 4.1487C14.3946 4.14314 15.7549 4.14314 17.1097 4.1487C17.5428 4.1487 17.887 4.34303 18.1036 4.72614C18.1536 4.81498 18.2146 4.85384 18.3201 4.84829C18.5811 4.84274 18.8476 4.84274 19.1086 4.84829C19.3473 4.85384 19.4639 4.9982 19.4139 5.2314C19.3917 5.32579 19.364 5.42018 19.3307 5.50902C19.2474 5.6978 19.2141 5.72001 18.7921 5.78108Z" fill="#3F3679"/>
<path d="M5.78844 5.88406C5.15548 5.16781 5.12771 4.42935 5.69405 3.87412C6.19932 3.37996 6.98775 3.3744 7.51522 3.86301C7.94275 4.25167 8.20926 5.14005 7.42638 5.87296C7.5874 5.92293 7.74842 5.95069 7.89278 6.02287C8.46467 6.28938 8.72008 6.75578 8.73118 7.37209C8.74229 8.09945 8.73118 8.8268 8.73674 9.55416C8.73674 9.74294 8.66456 9.80402 8.47578 9.80402C7.2265 9.79846 5.98278 9.79846 4.7335 9.80402C4.53917 9.80402 4.48364 9.73739 4.48364 9.54861C4.48919 8.82125 4.48364 8.0939 4.4892 7.36654C4.4892 6.57811 4.90007 6.08395 5.67184 5.91738C5.70516 5.91183 5.73847 5.90072 5.78844 5.88406Z" fill="#3F3679"/>
<path d="M15.0497 8.10484C14.6111 8.10484 14.178 8.11595 13.7394 8.09929C13.4729 8.09374 13.2508 8.16037 13.1064 8.38246C12.8676 8.75447 12.5401 8.84331 12.1181 8.80999C11.6794 8.77668 11.2297 8.80444 10.7855 8.80444C10.5301 8.80444 10.4912 8.76557 10.4857 8.52127C10.4857 8.07153 10.4912 7.62179 10.4857 7.1665C10.4801 6.76673 10.7189 6.53353 11.0076 6.32254C11.0687 6.27812 11.1242 6.30589 11.1797 6.3392C11.4851 6.51687 11.8016 6.67234 12.0126 6.97772C12.1792 7.20536 12.4235 7.30531 12.7011 7.30531C14.2557 7.30531 15.8104 7.30531 17.365 7.30531C17.6593 7.30531 17.9092 7.19981 18.0813 6.94996C18.2923 6.65013 18.6199 6.50022 18.9253 6.31699C18.9808 6.28368 19.0196 6.29478 19.0752 6.32809C19.4028 6.54464 19.6026 6.83336 19.5971 7.23868C19.5915 7.66066 19.5971 8.08263 19.5971 8.51017C19.5971 8.73781 19.5249 8.80444 19.2973 8.80444C18.7087 8.80444 18.1202 8.80444 17.5261 8.80444C17.4095 8.80444 17.3317 8.77113 17.254 8.68784C16.6099 8.02156 16.882 8.1104 15.8826 8.10484C15.605 8.10484 15.3273 8.10484 15.0497 8.10484Z" fill="#63BBE6"/>
<path d="M18.7807 6.11105C18.6308 6.19988 18.492 6.27762 18.3588 6.3609C18.1811 6.47195 18.0256 6.6052 17.9035 6.77733C17.7647 6.97166 17.5703 7.05494 17.3316 7.05494C15.7991 7.04939 14.2667 7.05494 12.7398 7.05494C12.5066 7.05494 12.3234 6.97721 12.1846 6.78843C11.9958 6.52192 11.7237 6.3498 11.4405 6.19988C11.3184 6.13881 11.3128 6.09994 11.4183 6C11.6127 5.82232 11.8237 5.75014 12.0902 5.7557C14.0557 5.7668 16.0268 5.77235 17.9923 5.75014C18.3365 5.74459 18.5475 5.90006 18.7807 6.11105Z" fill="#63BBE6"/>
<path d="M15.033 5.50559C14.0558 5.50559 13.0786 5.50004 12.1014 5.51114C11.9348 5.51114 11.9181 5.49449 11.9737 5.32236C12.2124 4.61166 12.6844 4.35626 13.4339 4.38957C14.6055 4.43954 15.777 4.41178 16.9486 4.40068C17.4316 4.39512 17.7759 4.5728 17.9591 5.03364C17.998 5.13358 18.0479 5.23353 18.1034 5.33347C18.1923 5.48338 18.1368 5.5167 17.9813 5.5167C16.9985 5.50559 16.0158 5.50559 15.033 5.50559Z" fill="#F7AE23"/>
<path d="M16.9818 8.79844C15.677 8.79844 14.3944 8.79844 13.0896 8.79844C13.2895 8.51527 13.4894 8.33205 13.8669 8.3487C14.6498 8.38202 15.4327 8.35981 16.2156 8.35981C16.6542 8.35426 16.7208 8.39312 16.9818 8.79844Z" fill="#F26175"/>
<path d="M18.4477 9.21448C18.4199 9.09233 18.481 9.04791 18.6254 9.04791C18.9252 9.05346 19.2195 9.04235 19.5193 9.03125C19.5748 9.03125 19.597 9.0368 19.6026 9.08677C19.6081 9.32552 19.597 9.56428 19.386 9.73085C19.2028 9.87521 18.9974 9.90852 18.7808 9.80858C18.5365 9.70308 18.4477 9.49765 18.4477 9.21448Z" fill="#CDCDCD"/>
<path d="M10.4911 9.20803C10.4467 9.04701 10.53 9.03591 10.6855 9.05257C10.9464 9.07478 11.2129 9.06367 11.4739 9.05812C11.5905 9.05257 11.6238 9.09699 11.6294 9.21358C11.6349 9.5967 11.4073 9.86876 11.0686 9.87987C10.7354 9.87987 10.4911 9.6078 10.4911 9.20803Z" fill="#CDCDCD"/>
<path d="M11.3519 5.09349C11.3908 5.09349 11.4352 5.08239 11.4741 5.09349C11.574 5.12126 11.735 5.01576 11.7683 5.16012C11.8016 5.32114 11.5907 5.50437 11.4241 5.50437C11.3686 5.50437 11.313 5.50437 11.2575 5.50437C11.0354 5.50437 10.9355 5.39332 10.9299 5.16568C10.9299 5.08794 10.9744 5.09349 11.0188 5.09349C11.1298 5.09349 11.2409 5.09349 11.3519 5.09349Z" fill="#CBCBCC"/>
<path d="M18.2812 5.09397C18.5533 5.09397 18.8087 5.09397 19.0641 5.09397C19.0974 5.09397 19.1308 5.08842 19.1474 5.13284C19.1918 5.24389 19.0364 5.49929 18.9198 5.50485C18.8976 5.50485 18.8809 5.50485 18.8587 5.50485C18.4534 5.5104 18.4534 5.5104 18.2812 5.09397Z" fill="#CBCBCC"/>
<path d="M6.59912 9.55391C6.03833 9.55391 5.47755 9.54836 4.91121 9.55391C4.7835 9.55391 4.72798 9.52615 4.73353 9.38179C4.73908 8.6822 4.72798 7.9826 4.73908 7.27745C4.75019 6.63338 5.23324 6.15033 5.87731 6.13922C6.34371 6.12812 6.80456 6.13367 7.27095 6.13922C7.97055 6.14478 8.45915 6.60007 8.47581 7.29966C8.49802 7.99926 8.47581 8.69885 8.48136 9.39845C8.48136 9.54836 8.40363 9.54836 8.29814 9.54281C7.73735 9.55391 7.17101 9.55391 6.59912 9.55391Z" fill="#CDCDCD"/>
<path d="M6.61573 3.75391C7.21538 3.75946 7.67623 4.22586 7.67623 4.83106C7.67067 5.43071 7.19872 5.89156 6.59907 5.89156C6.00497 5.89156 5.53857 5.41406 5.53857 4.8144C5.53857 4.2203 6.01608 3.75391 6.61573 3.75391Z" fill="#F7AE23"/>
<path d="M11.6071 6.98546C11.6071 7.3075 11.5016 7.47407 11.2906 7.53514C11.2795 7.54069 11.2629 7.54625 11.2518 7.54625C11.0685 7.56846 10.9242 7.49628 10.8353 7.33526C10.7354 7.15203 10.7632 6.78002 10.8909 6.64677C11.0241 6.51351 11.1907 6.47464 11.3628 6.56348C11.5627 6.65787 11.6071 6.83555 11.6071 6.98546Z" fill="#3F3779"/>
<path d="M18.4866 7.03302C18.4866 6.64436 18.7475 6.42227 19.0585 6.56107C19.3028 6.66657 19.3972 7.07189 19.2472 7.34395C19.1306 7.54939 18.8808 7.61602 18.6754 7.48832C18.5365 7.39948 18.4866 7.27733 18.4866 7.03302Z" fill="#3F3779"/>
<path d="M11.0353 7.03291C11.0297 6.91076 11.0353 6.77195 11.1963 6.77751C11.3518 6.77751 11.3629 6.91076 11.3629 7.03846C11.3629 7.16062 11.3518 7.29942 11.1963 7.29942C11.0297 7.29387 11.0242 7.16062 11.0353 7.03291Z" fill="#F0AA26"/>
<path d="M18.7365 7.0416C18.731 6.90834 18.731 6.77508 18.892 6.76953C19.0475 6.76953 19.0586 6.90279 19.0586 7.02494C19.0586 7.14709 19.0475 7.2859 18.892 7.2859C18.7365 7.297 18.7254 7.1582 18.7365 7.0416Z" fill="#F0AA26"/>
<path d="M4.20084 7.30078C4.27485 7.30078 4.34886 7.30078 4.42288 7.30078C4.45742 7.30572 4.49196 7.31065 4.5265 7.31558C4.64656 7.33039 4.76827 7.33697 4.88669 7.35835C5.51334 7.47677 6.05775 7.75637 6.51334 8.2021C7.01992 8.69881 7.32748 9.29749 7.43275 10.0014C7.44755 10.0968 7.45742 10.1922 7.47058 10.2876C7.47058 10.4028 7.47058 10.5179 7.47058 10.633C7.45742 10.7449 7.44755 10.8567 7.42781 10.9669C7.30775 11.6774 6.98538 12.281 6.45906 12.7712C5.98209 13.2153 5.41794 13.4866 4.77156 13.5804C4.67617 13.5935 4.58077 13.6051 4.48538 13.6166C4.37025 13.6166 4.25511 13.6166 4.13998 13.6166C4.12025 13.6133 4.10051 13.6067 4.08077 13.6051C3.94097 13.5853 3.79788 13.5755 3.66136 13.5442C2.84393 13.3666 2.1959 12.9307 1.71564 12.2465C1.41301 11.8139 1.23538 11.3337 1.1811 10.8074C1.17288 10.7317 1.16465 10.6577 1.15479 10.582C1.15479 10.4998 1.15479 10.4176 1.15479 10.3353C1.15972 10.3074 1.16465 10.2794 1.16794 10.2514C1.18604 10.11 1.19426 9.96526 1.22386 9.82545C1.38669 9.05407 1.78472 8.42578 2.41136 7.94716C2.87025 7.59683 3.38834 7.39124 3.96235 7.32874C4.0413 7.31887 4.12025 7.309 4.20084 7.30078ZM3.71729 10.9817C3.69261 10.9505 3.6811 10.9291 3.66465 10.9143C3.464 10.7136 3.26334 10.513 3.06268 10.3123C2.96235 10.212 2.839 10.1741 2.70084 10.2037C2.55281 10.235 2.45248 10.3287 2.40972 10.4751C2.36696 10.6199 2.4015 10.7531 2.5084 10.86C2.80775 11.161 3.10709 11.4587 3.40643 11.758C3.6038 11.9554 3.82584 11.9554 4.02156 11.7597C4.70413 11.0771 5.38834 10.3929 6.0709 9.71032C6.09558 9.68565 6.12025 9.66098 6.14163 9.63302C6.29623 9.42907 6.21564 9.12973 5.97715 9.03762C5.81268 8.97512 5.66794 9.01295 5.54294 9.13795C4.95248 9.72841 4.36367 10.3189 3.77321 10.9093C3.76005 10.9274 3.74525 10.9472 3.71729 10.9817Z" fill="#70CC33"/>
<path d="M3.71739 10.9815C3.74535 10.947 3.75851 10.9256 3.7766 10.9091C4.36706 10.3187 4.95752 9.72821 5.54634 9.13775C5.67134 9.01275 5.81607 8.97492 5.98055 9.03742C6.21903 9.12953 6.29962 9.42887 6.14502 9.63282C6.12364 9.66078 6.09897 9.68545 6.0743 9.71012C5.39173 10.3927 4.70752 11.0769 4.02495 11.7595C3.82923 11.9552 3.60719 11.9552 3.40982 11.7578C3.11048 11.4585 2.80949 11.1591 2.5118 10.8598C2.40489 10.7512 2.37035 10.6197 2.41311 10.4749C2.45587 10.3302 2.5562 10.2364 2.70423 10.2035C2.84239 10.1739 2.9641 10.2118 3.06607 10.3121C3.26673 10.5128 3.46739 10.7134 3.66805 10.9141C3.68285 10.9305 3.69436 10.9503 3.71739 10.9815Z" fill="white"/>
</svg>
