<svg width="22" height="14" viewBox="0 0 22 14" fill="none" xmlns="http://www.w3.org/2000/svg">
<path d="M21.4301 11.2886C21.4301 8.09042 21.4301 4.89227 21.4301 1.69412C21.4301 1.02229 21.0915 0.683594 20.4196 0.683594C14.573 0.689146 8.72639 0.689146 2.87977 0.689146C2.20239 0.689146 1.86925 1.02784 1.86925 1.69967C1.86925 4.89782 1.86925 8.09597 1.86925 11.2941C1.86925 11.4662 1.84704 11.6384 1.86925 11.8105C1.8859 11.9493 1.93587 12.077 2.02471 12.188C2.08023 12.2602 2.13021 12.3435 2.20239 12.4046C2.25791 12.449 2.32454 12.4712 2.39672 12.4879C2.48 12.5045 2.56884 12.5212 2.65213 12.5212C2.69654 12.5212 2.74652 12.5212 2.79093 12.5212C2.84091 12.5212 2.89088 12.5212 2.94085 12.5212C3.13518 12.5212 3.33506 12.5212 3.5294 12.5212C3.72373 12.5212 3.92361 12.5212 4.11794 12.5212C4.31228 12.5212 4.51216 12.5212 4.70649 12.5212C4.90082 12.5212 5.10071 12.5212 5.29504 12.5212C5.48937 12.5212 5.68926 12.5212 5.88359 12.5212C6.07792 12.5212 6.27781 12.5212 6.47214 12.5212C6.66647 12.5212 6.86635 12.5212 7.06069 12.5212C7.25502 12.5212 7.4549 12.5212 7.64923 12.5212C7.84357 12.5212 8.04345 12.5212 8.23778 12.5212C8.43211 12.5212 8.632 12.5212 8.82633 12.5212C9.02066 12.5212 9.22055 12.5212 9.41488 12.5212C9.60921 12.5212 9.8091 12.5212 10.0034 12.5212C10.1978 12.5212 10.3976 12.5212 10.592 12.5212C10.7863 12.5212 10.9862 12.5212 11.1805 12.5212C11.3749 12.5212 11.5747 12.5212 11.7691 12.5212C11.9634 12.5212 12.1633 12.5212 12.3576 12.5212C12.552 12.5212 12.7518 12.5212 12.9462 12.5212C13.1405 12.5212 13.3404 12.5212 13.5347 12.5212C13.729 12.5212 13.9289 12.5212 14.1233 12.5212C14.3176 12.5212 14.5175 12.5212 14.7118 12.5212C14.9061 12.5212 15.106 12.5212 15.3004 12.5212C15.4947 12.5212 15.6946 12.5212 15.8889 12.5212C16.0832 12.5212 16.2831 12.5212 16.4775 12.5212C16.6718 12.5212 16.8717 12.5212 17.066 12.5212C17.2603 12.5212 17.4602 12.5212 17.6546 12.5212C17.8489 12.5212 18.0488 12.5212 18.2431 12.5212C18.4374 12.5212 18.6373 12.5212 18.8317 12.5212C19.026 12.5212 19.2259 12.5212 19.4202 12.5212C19.6145 12.5212 19.8144 12.5212 20.0087 12.5212C20.1587 12.5212 20.303 12.5212 20.4529 12.5212C20.5362 12.5212 20.614 12.5212 20.6972 12.5212C20.7083 12.5212 20.7194 12.5212 20.7306 12.5212C20.7417 12.5212 20.7472 12.5156 20.7583 12.5101C20.8194 12.4823 20.8805 12.4546 20.936 12.4157C20.9915 12.3824 21.047 12.3435 21.097 12.2991C21.1026 12.2935 21.1081 12.288 21.1081 12.288C21.1359 12.2602 21.1525 12.2325 21.1803 12.2047C21.2025 12.1769 21.2247 12.1492 21.2469 12.1159C21.2802 12.0659 21.3024 12.0104 21.3247 11.9493C21.3635 11.8383 21.3746 11.7217 21.3802 11.6106C21.4357 11.4996 21.4301 11.3941 21.4301 11.2886Z" fill="#54535C"/>
<path d="M19.7647 12.2532C19.7036 12.2532 19.6425 12.2587 19.5759 12.2587C14.3011 12.2587 9.03197 12.2587 3.75725 12.2587C3.67952 12.2587 3.60734 12.2532 3.5296 12.2532C3.31861 12.1699 3.22978 11.9978 3.19091 11.7868C3.1687 11.6757 3.1687 11.5647 3.1687 11.4536C3.1687 8.21107 3.1687 4.96295 3.1687 1.72038C3.1687 1.50939 3.19091 1.30396 3.30751 1.12073C3.37969 1.00968 3.47408 0.937501 3.61289 0.948606C3.66841 0.954158 3.72394 0.948606 3.77946 0.948606C9.00977 0.948606 14.2345 0.948606 19.4648 0.948606C19.5481 0.948606 19.6314 0.959711 19.7147 0.937501C20.0367 0.943054 20.3643 0.893083 20.6863 0.965263C20.542 1.08186 20.3699 1.02634 20.2033 1.03189C19.959 1.043 19.959 1.03744 20.0478 1.24843C20.1033 1.37058 20.1144 1.50384 20.12 1.63154C20.12 4.93519 20.12 8.23883 20.12 11.548C20.12 11.8423 20.0589 12.1088 19.7647 12.2532Z" fill="#A0A6A9"/>
<path d="M19.72 0.939968C19.6423 0.995491 19.559 0.967729 19.4757 0.967729C14.251 0.967729 9.02622 0.967729 3.80702 0.967729C3.46832 0.967729 3.26844 1.15651 3.24068 1.50075C3.23512 1.56183 3.24068 1.62291 3.24068 1.68953C3.24068 4.93765 3.24068 8.18022 3.23512 11.4283C3.23512 11.7504 3.27954 12.0335 3.5294 12.2556C3.25733 12.2556 2.99082 12.2612 2.71876 12.2612C2.38006 12.2556 2.13576 12.0113 2.11355 11.6726C2.108 11.6171 2.11355 11.5616 2.11355 11.5061C2.11355 8.2413 2.11355 4.97652 2.11355 1.71174C2.11355 1.17317 2.34675 0.939968 2.89088 0.939968C8.41546 0.939968 13.94 0.939968 19.4702 0.939968C19.5535 0.934415 19.6367 0.939968 19.72 0.939968Z" fill="#A0A1A9"/>
<path d="M19.7646 12.255C20.0034 12.0218 20.0589 11.7331 20.0589 11.4055C20.0534 8.26288 20.0534 5.12581 20.0534 1.98318C20.0534 1.63894 20.0978 1.28359 19.7813 0.972656C20.12 0.972656 20.4032 0.972656 20.6808 0.972656C20.9695 1.03928 21.1527 1.25027 21.1694 1.539C21.1749 1.59452 21.1694 1.65004 21.1694 1.70557C21.1694 4.97034 21.1694 8.24067 21.1694 11.5054C21.1694 12.0551 20.9584 12.2661 20.3976 12.2661C20.1977 12.2606 19.9812 12.255 19.7646 12.255Z" fill="#A0A9A9"/>
<path d="M18.5318 5.73421C18.7317 5.89523 18.9149 6.05624 19.1093 6.19505C19.4313 6.42825 19.5812 6.75584 19.5868 7.13895C19.5979 7.82744 19.6034 8.51038 19.5868 9.19887C19.5701 9.80963 19.0871 10.1872 18.5485 10.0428C18.1931 9.94844 17.9377 9.62085 17.9433 9.22108C17.9433 9.04896 17.8989 8.99899 17.7267 9.00454C15.7668 9.01009 13.8012 9.01009 11.8413 9.00454C11.6747 9.00454 11.6136 9.04341 11.6192 9.22108C11.6247 9.72079 11.2638 10.0872 10.803 10.0817C10.3366 10.0761 9.99232 9.70413 9.99232 9.20442C9.99232 8.52704 9.99787 7.8441 9.99232 7.16671C9.98677 6.75029 10.1533 6.4338 10.4809 6.18395C10.6642 6.04514 10.8474 5.89523 11.0362 5.74531C10.9584 5.69534 10.8974 5.71755 10.8363 5.712C10.6864 5.69534 10.5753 5.62871 10.5309 5.47325C10.5309 5.4677 10.5253 5.46214 10.5253 5.45659C10.3477 4.96243 10.4143 4.757 10.9862 4.80142C11.0417 4.80697 11.0972 4.80142 11.1528 4.80142C11.4581 4.81807 11.7191 4.82363 11.9134 4.47938C12.08 4.18511 12.4354 4.10182 12.774 4.10182C14.1344 4.09627 15.4947 4.09627 16.8495 4.10182C17.2825 4.10182 17.6268 4.29615 17.8433 4.67926C17.8933 4.7681 17.9544 4.80697 18.0599 4.80142C18.3208 4.79586 18.5873 4.79586 18.8483 4.80142C19.0871 4.80697 19.2037 4.95133 19.1537 5.18453C19.1315 5.27892 19.1037 5.37331 19.0704 5.46214C18.9871 5.65092 18.9538 5.67313 18.5318 5.73421Z" fill="#54535C"/>
<path d="M5.52843 5.83719C4.89547 5.12094 4.8677 4.38247 5.43404 3.82724C5.93931 3.33308 6.72774 3.32753 7.25521 3.81614C7.68274 4.2048 7.94925 5.09317 7.16637 5.82608C7.32739 5.87605 7.48841 5.90382 7.63277 5.976C8.20466 6.24251 8.46007 6.70891 8.47117 7.32522C8.48228 8.05257 8.47117 8.77993 8.47673 9.50729C8.47673 9.69607 8.40455 9.75714 8.21577 9.75714C6.96649 9.75159 5.72277 9.75159 4.47349 9.75714C4.27916 9.75714 4.22363 9.69051 4.22363 9.50173C4.22919 8.77438 4.22363 8.04702 4.22919 7.31966C4.22919 6.53123 4.64006 6.03707 5.41183 5.8705C5.44515 5.86495 5.47846 5.85385 5.52843 5.83719Z" fill="#54535C"/>
<path d="M14.7897 8.05797C14.3511 8.05797 13.918 8.06907 13.4794 8.05242C13.2128 8.04686 12.9907 8.11349 12.8464 8.33559C12.6076 8.70759 12.28 8.79643 11.8581 8.76312C11.4194 8.7298 10.9697 8.75756 10.5255 8.75756C10.2701 8.75756 10.2312 8.7187 10.2257 8.47439C10.2257 8.02465 10.2312 7.57492 10.2257 7.11962C10.2201 6.71985 10.4589 6.48666 10.7476 6.27567C10.8087 6.23125 10.8642 6.25901 10.9197 6.29232C11.2251 6.47 11.5416 6.62546 11.7526 6.93084C11.9191 7.15849 12.1634 7.25843 12.4411 7.25843C13.9957 7.25843 15.5504 7.25843 17.105 7.25843C17.3993 7.25843 17.6492 7.15294 17.8213 6.90308C18.0323 6.60326 18.3599 6.45334 18.6652 6.27011C18.7208 6.2368 18.7596 6.24791 18.8152 6.28122C19.1427 6.49776 19.3426 6.78648 19.3371 7.1918C19.3315 7.61378 19.3371 8.03576 19.3371 8.46329C19.3371 8.69094 19.2649 8.75756 19.0372 8.75756C18.4487 8.75756 17.8602 8.75756 17.2661 8.75756C17.1495 8.75756 17.0717 8.72425 16.994 8.64097C16.3499 7.97468 16.622 8.06352 15.6226 8.05797C15.3449 8.05797 15.0673 8.05797 14.7897 8.05797Z" fill="#A0A6A9"/>
<path d="M18.5207 6.06417C18.3708 6.15301 18.232 6.23074 18.0987 6.31403C17.9211 6.42507 17.7656 6.55833 17.6435 6.73045C17.5046 6.92478 17.3103 7.00807 17.0716 7.00807C15.5391 7.00252 14.0067 7.00807 12.4798 7.00807C12.2466 7.00807 12.0634 6.93034 11.9245 6.74156C11.7358 6.47504 11.4637 6.30292 11.1805 6.15301C11.0584 6.09193 11.0528 6.05307 11.1583 5.95312C11.3527 5.77545 11.5636 5.70327 11.8302 5.70882C13.7957 5.71993 15.7668 5.72548 17.7323 5.70327C18.0765 5.69772 18.2875 5.85318 18.5207 6.06417Z" fill="#A0A6A9"/>
<path d="M14.773 5.45872C13.7958 5.45872 12.8186 5.45316 11.8414 5.46427C11.6748 5.46427 11.6581 5.44761 11.7137 5.27549C11.9524 4.56479 12.4244 4.30938 13.1739 4.3427C14.3455 4.39267 15.517 4.3649 16.6886 4.3538C17.1716 4.34825 17.5159 4.52592 17.6991 4.98677C17.7379 5.08671 17.7879 5.18665 17.8434 5.28659C17.9323 5.43651 17.8768 5.46982 17.7213 5.46982C16.7385 5.45872 15.7558 5.45872 14.773 5.45872Z" fill="#938F87"/>
<path d="M16.7218 8.75157C15.417 8.75157 14.1344 8.75157 12.8296 8.75157C13.0295 8.4684 13.2294 8.28517 13.6069 8.30183C14.3898 8.33514 15.1727 8.31293 15.9556 8.31293C16.3942 8.30738 16.4608 8.34625 16.7218 8.75157Z" fill="#AEA5A6"/>
<path d="M18.1877 9.1676C18.1599 9.04545 18.221 9.00103 18.3654 9.00103C18.6652 9.00658 18.9595 8.99548 19.2593 8.98438C19.3148 8.98438 19.337 8.98993 19.3426 9.0399C19.3481 9.27865 19.337 9.5174 19.126 9.68397C18.9428 9.82833 18.7374 9.86165 18.5208 9.7617C18.2765 9.65621 18.1877 9.45077 18.1877 9.1676Z" fill="#CDCDCD"/>
<path d="M10.2311 9.16116C10.1867 9.00014 10.27 8.98903 10.4255 9.00569C10.6864 9.0279 10.9529 9.0168 11.2139 9.01124C11.3305 9.00569 11.3638 9.05011 11.3694 9.16671C11.3749 9.54982 11.1473 9.82189 10.8086 9.83299C10.4754 9.83299 10.2311 9.56093 10.2311 9.16116Z" fill="#CDCDCD"/>
<path d="M11.0919 5.04662C11.1308 5.04662 11.1752 5.03552 11.2141 5.04662C11.314 5.07438 11.475 4.96889 11.5083 5.11325C11.5416 5.27427 11.3307 5.45749 11.1641 5.45749C11.1086 5.45749 11.053 5.45749 10.9975 5.45749C10.7754 5.45749 10.6755 5.34645 10.6699 5.1188C10.6699 5.04107 10.7143 5.04662 10.7588 5.04662C10.8698 5.04662 10.9809 5.04662 11.0919 5.04662Z" fill="#CBCBCC"/>
<path d="M18.021 5.0471C18.2931 5.0471 18.5485 5.0471 18.8039 5.0471C18.8372 5.0471 18.8705 5.04154 18.8872 5.08596C18.9316 5.19701 18.7761 5.45242 18.6595 5.45797C18.6373 5.45797 18.6206 5.45797 18.5984 5.45797C18.1931 5.46352 18.1931 5.46352 18.021 5.0471Z" fill="#CBCBCC"/>
<path d="M6.33911 9.50704C5.77832 9.50704 5.21754 9.50149 4.6512 9.50704C4.52349 9.50704 4.46797 9.47928 4.47352 9.33492C4.47907 8.63532 4.46797 7.93573 4.47907 7.23058C4.49018 6.58651 4.97323 6.10345 5.6173 6.09235C6.0837 6.08124 6.54455 6.0868 7.01094 6.09235C7.71054 6.0979 8.19914 6.55319 8.2158 7.25279C8.23801 7.95238 8.2158 8.65198 8.22135 9.35157C8.22135 9.50149 8.14362 9.50149 8.03813 9.49593C7.47734 9.50704 6.911 9.50704 6.33911 9.50704Z" fill="#CDCDCD"/>
<path d="M6.35572 3.70703C6.95537 3.71258 7.41622 4.17898 7.41622 4.78419C7.41066 5.38384 6.93871 5.84468 6.33906 5.84468C5.74496 5.84468 5.27856 5.36718 5.27856 4.76753C5.27856 4.17343 5.75607 3.70703 6.35572 3.70703Z" fill="#938F87"/>
<path d="M11.3471 6.93858C11.3471 7.26062 11.2416 7.42719 11.0306 7.48827C11.0195 7.49382 11.0029 7.49937 10.9918 7.49937C10.8085 7.52158 10.6642 7.4494 10.5753 7.28838C10.4754 7.10516 10.5032 6.73315 10.6309 6.59989C10.7641 6.46664 10.9307 6.42777 11.1028 6.51661C11.3027 6.611 11.3471 6.78867 11.3471 6.93858Z" fill="#55545C"/>
<path d="M18.2266 6.98615C18.2266 6.59748 18.4875 6.37539 18.7985 6.5142C19.0428 6.61969 19.1371 7.02501 18.9872 7.29708C18.8706 7.50252 18.6208 7.56914 18.4153 7.44144C18.2765 7.3526 18.2266 7.23045 18.2266 6.98615Z" fill="#55545C"/>
<path d="M10.7753 6.98604C10.7697 6.86389 10.7753 6.72508 10.9363 6.73063C11.0918 6.73063 11.1029 6.86389 11.1029 6.99159C11.1029 7.11374 11.0918 7.25255 10.9363 7.25255C10.7697 7.247 10.7642 7.11374 10.7753 6.98604Z" fill="#918D85"/>
<path d="M18.4765 6.99472C18.471 6.86146 18.471 6.72821 18.632 6.72266C18.7875 6.72266 18.7986 6.85591 18.7986 6.97806C18.7986 7.10022 18.7875 7.23902 18.632 7.23902C18.4765 7.25013 18.4654 7.11132 18.4765 6.99472Z" fill="#918D85"/>
<path d="M3.30924 7.25781C3.38325 7.25781 3.45726 7.25781 3.53128 7.25781C3.56582 7.26275 3.60036 7.26768 3.63489 7.27262C3.75496 7.28742 3.87667 7.294 3.99509 7.31538C4.62174 7.4338 5.16614 7.7134 5.62174 8.15913C6.12832 8.65584 6.43588 9.25452 6.54114 9.95847C6.55595 10.0539 6.56582 10.1493 6.57897 10.2447C6.57897 10.3598 6.57897 10.4749 6.57897 10.59C6.56582 10.7019 6.55595 10.8137 6.53621 10.9239C6.41614 11.6345 6.09378 12.2381 5.56746 12.7282C5.09049 13.1723 4.52634 13.4437 3.87996 13.5374C3.78457 13.5506 3.68917 13.5621 3.59378 13.5736C3.47864 13.5736 3.36351 13.5736 3.24838 13.5736C3.22864 13.5703 3.20891 13.5637 3.18917 13.5621C3.04937 13.5424 2.90628 13.5325 2.76976 13.5012C1.95233 13.3236 1.3043 12.8877 0.824039 12.2035C0.521407 11.771 0.343776 11.2907 0.289499 10.7644C0.281276 10.6887 0.273052 10.6147 0.263184 10.5391C0.263184 10.4568 0.263184 10.3746 0.263184 10.2924C0.268118 10.2644 0.273052 10.2364 0.276341 10.2085C0.294434 10.067 0.302657 9.92229 0.332263 9.78248C0.495092 9.0111 0.893118 8.38281 1.51976 7.90419C1.97864 7.55387 2.49674 7.34827 3.07075 7.28577C3.1497 7.2759 3.22864 7.26604 3.30924 7.25781ZM2.82568 10.9387C2.80101 10.9075 2.7895 10.8861 2.77305 10.8713C2.57239 10.6706 2.37174 10.47 2.17108 10.2693C2.07075 10.169 1.94739 10.1312 1.80924 10.1608C1.66121 10.192 1.56088 10.2858 1.51812 10.4322C1.47535 10.5769 1.50989 10.7101 1.6168 10.817C1.91614 11.118 2.21549 11.4157 2.51483 11.715C2.7122 11.9124 2.93424 11.9124 3.12996 11.7167C3.81253 11.0341 4.49674 10.3499 5.1793 9.66735C5.20397 9.64268 5.22864 9.61801 5.25003 9.59005C5.40463 9.3861 5.32404 9.08676 5.08555 8.99465C4.92108 8.93215 4.77634 8.96998 4.65134 9.09498C4.06088 9.68544 3.47207 10.2759 2.8816 10.8664C2.86845 10.8845 2.85364 10.9042 2.82568 10.9387Z" fill="#F44725"/>
<path d="M2.82579 10.9385C2.85375 10.904 2.8669 10.8826 2.885 10.8662C3.47546 10.2757 4.06592 9.68524 4.65473 9.09478C4.77973 8.96978 4.92447 8.93195 5.08894 8.99445C5.32743 9.08656 5.40802 9.3859 5.25342 9.58985C5.23204 9.61781 5.20737 9.64248 5.18269 9.66715C4.50013 10.3497 3.81592 11.0339 3.13335 11.7165C2.93763 11.9122 2.71559 11.9122 2.51822 11.7148C2.21888 11.4155 1.91789 11.1162 1.62019 10.8168C1.51329 10.7083 1.47875 10.5767 1.52151 10.432C1.56427 10.2872 1.6646 10.1935 1.81263 10.1606C1.95079 10.131 2.0725 10.1688 2.17447 10.2691C2.37513 10.4698 2.57579 10.6704 2.77644 10.8711C2.79125 10.8875 2.80276 10.9073 2.82579 10.9385Z" fill="white"/>
</svg>
