<svg width="22" height="14" viewBox="0 0 22 14" fill="none" xmlns="http://www.w3.org/2000/svg">
<path d="M21.4301 11.2886C21.4301 8.09042 21.4301 4.89227 21.4301 1.69412C21.4301 1.02229 21.0915 0.683594 20.4196 0.683594C14.573 0.689146 8.72639 0.689146 2.87977 0.689146C2.20239 0.689146 1.86925 1.02784 1.86925 1.69967C1.86925 4.89782 1.86925 8.09597 1.86925 11.2941C1.86925 11.4662 1.84704 11.6384 1.86925 11.8105C1.8859 11.9493 1.93587 12.077 2.02471 12.188C2.08023 12.2602 2.13021 12.3435 2.20239 12.4046C2.25791 12.449 2.32454 12.4712 2.39672 12.4879C2.48 12.5045 2.56884 12.5212 2.65213 12.5212C2.69654 12.5212 2.74652 12.5212 2.79093 12.5212C2.84091 12.5212 2.89088 12.5212 2.94085 12.5212C3.13518 12.5212 3.33506 12.5212 3.5294 12.5212C3.72373 12.5212 3.92361 12.5212 4.11794 12.5212C4.31228 12.5212 4.51216 12.5212 4.70649 12.5212C4.90082 12.5212 5.10071 12.5212 5.29504 12.5212C5.48937 12.5212 5.68926 12.5212 5.88359 12.5212C6.07792 12.5212 6.27781 12.5212 6.47214 12.5212C6.66647 12.5212 6.86635 12.5212 7.06069 12.5212C7.25502 12.5212 7.4549 12.5212 7.64923 12.5212C7.84357 12.5212 8.04345 12.5212 8.23778 12.5212C8.43211 12.5212 8.632 12.5212 8.82633 12.5212C9.02066 12.5212 9.22055 12.5212 9.41488 12.5212C9.60921 12.5212 9.8091 12.5212 10.0034 12.5212C10.1978 12.5212 10.3976 12.5212 10.592 12.5212C10.7863 12.5212 10.9862 12.5212 11.1805 12.5212C11.3749 12.5212 11.5747 12.5212 11.7691 12.5212C11.9634 12.5212 12.1633 12.5212 12.3576 12.5212C12.552 12.5212 12.7518 12.5212 12.9462 12.5212C13.1405 12.5212 13.3404 12.5212 13.5347 12.5212C13.729 12.5212 13.9289 12.5212 14.1233 12.5212C14.3176 12.5212 14.5175 12.5212 14.7118 12.5212C14.9061 12.5212 15.106 12.5212 15.3004 12.5212C15.4947 12.5212 15.6946 12.5212 15.8889 12.5212C16.0832 12.5212 16.2831 12.5212 16.4775 12.5212C16.6718 12.5212 16.8717 12.5212 17.066 12.5212C17.2603 12.5212 17.4602 12.5212 17.6546 12.5212C17.8489 12.5212 18.0488 12.5212 18.2431 12.5212C18.4374 12.5212 18.6373 12.5212 18.8317 12.5212C19.026 12.5212 19.2259 12.5212 19.4202 12.5212C19.6145 12.5212 19.8144 12.5212 20.0087 12.5212C20.1587 12.5212 20.303 12.5212 20.4529 12.5212C20.5362 12.5212 20.614 12.5212 20.6972 12.5212C20.7083 12.5212 20.7194 12.5212 20.7306 12.5212C20.7417 12.5212 20.7472 12.5156 20.7583 12.5101C20.8194 12.4823 20.8805 12.4546 20.936 12.4157C20.9915 12.3824 21.047 12.3435 21.097 12.2991C21.1026 12.2935 21.1081 12.288 21.1081 12.288C21.1359 12.2602 21.1525 12.2325 21.1803 12.2047C21.2025 12.1769 21.2247 12.1492 21.2469 12.1159C21.2802 12.0659 21.3024 12.0104 21.3247 11.9493C21.3635 11.8383 21.3746 11.7217 21.3802 11.6106C21.4357 11.4996 21.4301 11.3941 21.4301 11.2886Z" fill="#54535C"/>
<path d="M19.7647 12.2532C19.7036 12.2532 19.6425 12.2587 19.5759 12.2587C14.3011 12.2587 9.03197 12.2587 3.75725 12.2587C3.67952 12.2587 3.60734 12.2532 3.5296 12.2532C3.31861 12.1699 3.22978 11.9978 3.19091 11.7868C3.1687 11.6757 3.1687 11.5647 3.1687 11.4536C3.1687 8.21107 3.1687 4.96295 3.1687 1.72038C3.1687 1.50939 3.19091 1.30396 3.30751 1.12073C3.37969 1.00968 3.47408 0.937501 3.61289 0.948606C3.66841 0.954158 3.72394 0.948606 3.77946 0.948606C9.00977 0.948606 14.2345 0.948606 19.4648 0.948606C19.5481 0.948606 19.6314 0.959711 19.7147 0.937501C20.0367 0.943054 20.3643 0.893083 20.6863 0.965263C20.542 1.08186 20.3699 1.02634 20.2033 1.03189C19.959 1.043 19.959 1.03744 20.0478 1.24843C20.1033 1.37058 20.1144 1.50384 20.12 1.63154C20.12 4.93519 20.12 8.23883 20.12 11.548C20.12 11.8423 20.0589 12.1088 19.7647 12.2532Z" fill="#A0A6A9"/>
<path d="M19.72 0.939968C19.6423 0.995491 19.559 0.967729 19.4757 0.967729C14.251 0.967729 9.02622 0.967729 3.80702 0.967729C3.46832 0.967729 3.26844 1.15651 3.24068 1.50075C3.23512 1.56183 3.24068 1.62291 3.24068 1.68953C3.24068 4.93765 3.24068 8.18022 3.23512 11.4283C3.23512 11.7504 3.27954 12.0335 3.5294 12.2556C3.25733 12.2556 2.99082 12.2612 2.71876 12.2612C2.38006 12.2556 2.13576 12.0113 2.11355 11.6726C2.108 11.6171 2.11355 11.5616 2.11355 11.5061C2.11355 8.2413 2.11355 4.97652 2.11355 1.71174C2.11355 1.17317 2.34675 0.939968 2.89088 0.939968C8.41546 0.939968 13.94 0.939968 19.4702 0.939968C19.5535 0.934415 19.6367 0.939968 19.72 0.939968Z" fill="#A0A1A9"/>
<path d="M19.7646 12.255C20.0034 12.0218 20.0589 11.7331 20.0589 11.4055C20.0534 8.26288 20.0534 5.12581 20.0534 1.98318C20.0534 1.63894 20.0978 1.28359 19.7813 0.972656C20.12 0.972656 20.4032 0.972656 20.6808 0.972656C20.9695 1.03928 21.1527 1.25027 21.1694 1.539C21.1749 1.59452 21.1694 1.65004 21.1694 1.70557C21.1694 4.97034 21.1694 8.24067 21.1694 11.5054C21.1694 12.0551 20.9584 12.2661 20.3976 12.2661C20.1977 12.2606 19.9812 12.255 19.7646 12.255Z" fill="#A0A9A9"/>
<path d="M5.52843 5.83719C4.89547 5.12094 4.8677 4.38247 5.43404 3.82724C5.93931 3.33308 6.72774 3.32753 7.25521 3.81614C7.68274 4.2048 7.94925 5.09317 7.16637 5.82608C7.32739 5.87605 7.48841 5.90382 7.63277 5.976C8.20466 6.24251 8.46007 6.70891 8.47117 7.32522C8.48228 8.05257 8.47117 8.77993 8.47673 9.50729C8.47673 9.69607 8.40455 9.75714 8.21577 9.75714C6.96649 9.75159 5.72277 9.75159 4.47349 9.75714C4.27916 9.75714 4.22363 9.69051 4.22363 9.50173C4.22919 8.77438 4.22363 8.04702 4.22919 7.31966C4.22919 6.53123 4.64006 6.03707 5.41183 5.8705C5.44515 5.86495 5.47846 5.85385 5.52843 5.83719Z" fill="#54535C"/>
<path d="M17.9712 6.26841H11.6026C11.536 6.26841 11.4805 6.21288 11.4805 6.14625V5.94637C11.4805 5.87974 11.536 5.82422 11.6026 5.82422H17.9712C18.0378 5.82422 18.0933 5.87974 18.0933 5.94637V6.14625C18.0933 6.21288 18.0378 6.26841 17.9712 6.26841Z" fill="#CFC9CA"/>
<path d="M17.9712 7.68247H11.6026C11.536 7.68247 11.4805 7.62695 11.4805 7.56032V7.36043C11.4805 7.2938 11.536 7.23828 11.6026 7.23828H17.9712C18.0378 7.23828 18.0933 7.2938 18.0933 7.36043V7.56032C18.0933 7.62695 18.0378 7.68247 17.9712 7.68247Z" fill="#CFC9CA"/>
<path d="M17.5659 6.97318H12.008C11.9413 6.97318 11.8914 6.92321 11.8914 6.85658V6.64004C11.8914 6.57341 11.9413 6.52344 12.008 6.52344H17.5714C17.638 6.52344 17.688 6.57341 17.688 6.64004V6.85658C17.6825 6.92321 17.6325 6.97318 17.5659 6.97318Z" fill="#CFC9CA"/>
<path d="M17.8823 5.36504H11.6915C11.5749 5.36504 11.4805 5.27065 11.4805 5.15405V4.26568C11.4805 4.14908 11.5749 4.05469 11.6915 4.05469H17.8823C17.9989 4.05469 18.0933 4.14908 18.0933 4.26568V5.15405C18.0933 5.27065 17.9989 5.36504 17.8823 5.36504Z" fill="#938F87"/>
<path d="M14.773 8.42578C13.7958 8.42578 12.8186 8.42578 11.8414 8.42578C11.6748 8.42578 11.6581 8.43689 11.7137 8.54793C11.9524 9.01988 12.4244 9.18645 13.1739 9.16424C14.3455 9.13093 15.517 9.15314 16.6886 9.15869C17.1716 9.16424 17.5159 9.04764 17.6991 8.74226C17.7379 8.67564 17.7879 8.60901 17.8434 8.54793C17.9323 8.44799 17.8768 8.42578 17.7213 8.42578C16.7385 8.42578 15.7558 8.42578 14.773 8.42578Z" fill="#938F87"/>
<path d="M6.33911 9.50704C5.77832 9.50704 5.21754 9.50149 4.6512 9.50704C4.52349 9.50704 4.46797 9.47928 4.47352 9.33492C4.47907 8.63532 4.46797 7.93573 4.47907 7.23058C4.49018 6.58651 4.97323 6.10345 5.6173 6.09235C6.0837 6.08124 6.54455 6.0868 7.01094 6.09235C7.71054 6.0979 8.19914 6.55319 8.2158 7.25279C8.23801 7.95238 8.2158 8.65198 8.22135 9.35157C8.22135 9.50149 8.14362 9.50149 8.03813 9.49593C7.47734 9.50704 6.911 9.50704 6.33911 9.50704Z" fill="#CDCDCD"/>
<path d="M6.35572 3.70703C6.95537 3.71258 7.41622 4.17898 7.41622 4.78419C7.41066 5.38384 6.93871 5.84468 6.33906 5.84468C5.74496 5.84468 5.27856 5.36718 5.27856 4.76753C5.27856 4.17343 5.75607 3.70703 6.35572 3.70703Z" fill="#938F87"/>
<path d="M3.31095 7C3.38496 7 3.45897 7 3.53298 7C3.56752 7.00493 3.60206 7.00987 3.6366 7.0148C3.75667 7.02961 3.87838 7.03618 3.9968 7.05757C4.62345 7.17599 5.16785 7.45559 5.62345 7.90132C6.13002 8.39803 6.43759 8.99671 6.54285 9.70066C6.55766 9.79605 6.56752 9.89145 6.58068 9.98684C6.58068 10.102 6.58068 10.2171 6.58068 10.3322C6.56752 10.4441 6.55766 10.5559 6.53792 10.6661C6.41785 11.3766 6.09548 11.9803 5.56917 12.4704C5.0922 12.9145 4.52805 13.1859 3.88167 13.2796C3.78627 13.2928 3.69088 13.3043 3.59548 13.3158C3.48035 13.3158 3.36522 13.3158 3.25009 13.3158C3.23035 13.3125 3.21062 13.3059 3.19088 13.3043C3.05108 13.2845 2.90798 13.2747 2.77147 13.2434C1.95404 13.0658 1.30601 12.6299 0.825748 11.9457C0.523116 11.5132 0.345485 11.0329 0.291208 10.5066C0.282985 10.4309 0.274761 10.3569 0.264893 10.2812C0.264893 10.199 0.264893 10.1168 0.264893 10.0345C0.269827 10.0066 0.274761 9.97862 0.27805 9.95066C0.296143 9.80921 0.304366 9.66447 0.333972 9.52467C0.4968 8.75329 0.894827 8.125 1.52147 7.64638C1.98035 7.29605 2.49845 7.09046 3.07246 7.02796C3.15141 7.01809 3.23035 7.00822 3.31095 7ZM2.82739 10.6809C2.80272 10.6497 2.79121 10.6283 2.77476 10.6135C2.5741 10.4128 2.37345 10.2122 2.17279 10.0115C2.07246 9.91118 1.9491 9.87336 1.81095 9.90296C1.66292 9.93421 1.56259 10.028 1.51983 10.1743C1.47706 10.3191 1.5116 10.4523 1.61851 10.5592C1.91785 10.8602 2.2172 11.1579 2.51654 11.4572C2.71391 11.6546 2.93595 11.6546 3.13167 11.4589C3.81423 10.7763 4.49845 10.0921 5.18101 9.40954C5.20568 9.38487 5.23035 9.3602 5.25173 9.33224C5.40634 9.12829 5.32575 8.82895 5.08726 8.73684C4.92279 8.67434 4.77805 8.71217 4.65305 8.83717C4.06259 9.42763 3.47377 10.0181 2.88331 10.6086C2.87016 10.6266 2.85535 10.6464 2.82739 10.6809Z" fill="#F44725"/>
<path d="M2.8275 10.6807C2.85546 10.6462 2.86861 10.6248 2.88671 10.6084C3.47717 10.0179 4.06763 9.42743 4.65644 8.83697C4.78144 8.71197 4.92618 8.67414 5.09065 8.73664C5.32914 8.82875 5.40973 9.12809 5.25513 9.33204C5.23375 9.36 5.20907 9.38467 5.1844 9.40934C4.50184 10.0919 3.81763 10.7761 3.13506 11.4587C2.93934 11.6544 2.7173 11.6544 2.51993 11.457C2.22059 11.1577 1.9196 10.8584 1.6219 10.559C1.515 10.4505 1.48046 10.3189 1.52322 10.1741C1.56598 10.0294 1.66631 9.93566 1.81434 9.90276C1.9525 9.87316 2.07421 9.91098 2.17618 10.0113C2.37684 10.212 2.5775 10.4126 2.77815 10.6133C2.79296 10.6297 2.80447 10.6495 2.8275 10.6807Z" fill="white"/>
</svg>
